<mxfile host="app.diagrams.net" agent="Mozilla/5.0 (Windows NT 10.0; Win64; x64) AppleWebKit/537.36 (KHTML, like Gecko) Chrome/135.0.0.0 Safari/537.36" version="26.2.14">
  <diagram name="Page-1" id="b57pA6nQjmORLTaqaBxP">
    <mxGraphModel dx="1580" dy="864" grid="1" gridSize="10" guides="1" tooltips="1" connect="1" arrows="1" fold="1" page="1" pageScale="1" pageWidth="827" pageHeight="1169" math="0" shadow="0">
      <root>
        <mxCell id="0" />
        <mxCell id="1" parent="0" />
        <mxCell id="8fW0IzKIwBm5PHPQVIf4-1" value="" style="edgeStyle=orthogonalEdgeStyle;rounded=0;orthogonalLoop=1;jettySize=auto;html=1;" edge="1" parent="1" source="8fW0IzKIwBm5PHPQVIf4-2" target="8fW0IzKIwBm5PHPQVIf4-66">
          <mxGeometry relative="1" as="geometry" />
        </mxCell>
        <mxCell id="8fW0IzKIwBm5PHPQVIf4-2" value="&lt;div&gt;SUCURSAL&lt;/div&gt;" style="rounded=1;whiteSpace=wrap;html=1;fillColor=#EF67FF;" vertex="1" parent="1">
          <mxGeometry x="1110" y="405" width="110" height="45" as="geometry" />
        </mxCell>
        <mxCell id="8fW0IzKIwBm5PHPQVIf4-3" value="" style="edgeStyle=orthogonalEdgeStyle;rounded=0;orthogonalLoop=1;jettySize=auto;html=1;" edge="1" parent="1" source="8fW0IzKIwBm5PHPQVIf4-4" target="8fW0IzKIwBm5PHPQVIf4-61">
          <mxGeometry relative="1" as="geometry" />
        </mxCell>
        <mxCell id="8fW0IzKIwBm5PHPQVIf4-4" value="&lt;div&gt;EDITORIAL&lt;/div&gt;" style="rounded=1;whiteSpace=wrap;html=1;fillColor=#FF087B;" vertex="1" parent="1">
          <mxGeometry x="810" y="365" width="110" height="45" as="geometry" />
        </mxCell>
        <mxCell id="8fW0IzKIwBm5PHPQVIf4-5" value="" style="edgeStyle=orthogonalEdgeStyle;rounded=0;orthogonalLoop=1;jettySize=auto;html=1;" edge="1" parent="1" source="8fW0IzKIwBm5PHPQVIf4-6" target="8fW0IzKIwBm5PHPQVIf4-80">
          <mxGeometry relative="1" as="geometry" />
        </mxCell>
        <mxCell id="8fW0IzKIwBm5PHPQVIf4-6" value="&lt;div&gt;EMPLEADO&lt;/div&gt;" style="rounded=1;whiteSpace=wrap;html=1;fillColor=#D0527C;" vertex="1" parent="1">
          <mxGeometry x="1007.5" y="645" width="110" height="45" as="geometry" />
        </mxCell>
        <mxCell id="8fW0IzKIwBm5PHPQVIf4-7" style="edgeStyle=orthogonalEdgeStyle;rounded=0;orthogonalLoop=1;jettySize=auto;html=1;" edge="1" parent="1" source="8fW0IzKIwBm5PHPQVIf4-8" target="8fW0IzKIwBm5PHPQVIf4-85">
          <mxGeometry relative="1" as="geometry" />
        </mxCell>
        <mxCell id="8fW0IzKIwBm5PHPQVIf4-8" value="&lt;div&gt;REVISTAS&lt;/div&gt;" style="rounded=1;whiteSpace=wrap;html=1;fillColor=#AEE857;" vertex="1" parent="1">
          <mxGeometry x="1420" y="450" width="110" height="45" as="geometry" />
        </mxCell>
        <mxCell id="8fW0IzKIwBm5PHPQVIf4-9" value="" style="edgeStyle=orthogonalEdgeStyle;rounded=0;orthogonalLoop=1;jettySize=auto;html=1;" edge="1" parent="1" source="8fW0IzKIwBm5PHPQVIf4-10" target="8fW0IzKIwBm5PHPQVIf4-74">
          <mxGeometry relative="1" as="geometry" />
        </mxCell>
        <mxCell id="8fW0IzKIwBm5PHPQVIf4-10" value="&lt;div&gt;PERIODISTAS&lt;span style=&quot;color: rgba(0, 0, 0, 0); font-family: monospace; font-size: 0px; text-align: start; text-wrap-mode: nowrap; background-color: transparent;&quot;&gt;%3CmxGraphModel%3E%3Croot%3E%3CmxCell%20id%3D%220%22%2F%3E%3CmxCell%20id%3D%221%22%20parent%3D%220%22%2F%3E%3CmxCell%20id%3D%222%22%20value%3D%22Nombre.V%22%20style%3D%22ellipse%3BwhiteSpace%3Dwrap%3Bhtml%3D1%3B%22%20vertex%3D%221%22%20parent%3D%221%22%3E%3CmxGeometry%20x%3D%22-360%22%20y%3D%2250%22%20width%3D%2270%22%20height%3D%2240%22%20as%3D%22geometry%22%2F%3E%3C%2FmxCell%3E%3CmxCell%20id%3D%223%22%20style%3D%22edgeStyle%3DorthogonalEdgeStyle%3Brounded%3D0%3BorthogonalLoop%3D1%3BjettySize%3Dauto%3Bhtml%3D1%3B%22%20edge%3D%221%22%20source%3D%224%22%20parent%3D%221%22%3E%3CmxGeometry%20relative%3D%221%22%20as%3D%22geometry%22%3E%3CmxPoint%20x%3D%22-215%22%20y%3D%22178%22%20as%3D%22targetPoint%22%2F%3E%3C%2FmxGeometry%3E%3C%2FmxCell%3E%3CmxCell%20id%3D%224%22%20value%3D%22Apellidos.V%22%20style%3D%22ellipse%3BwhiteSpace%3Dwrap%3Bhtml%3D1%3B%22%20vertex%3D%221%22%20parent%3D%221%22%3E%3CmxGeometry%20x%3D%22-250%22%20y%3D%2240%22%20width%3D%2270%22%20height%3D%2240%22%20as%3D%22geometry%22%2F%3E%3C%2FmxCell%3E%3CmxCell%20id%3D%225%22%20style%3D%22edgeStyle%3DorthogonalEdgeStyle%3Brounded%3D0%3BorthogonalLoop%3D1%3BjettySize%3Dauto%3Bhtml%3D1%3BentryX%3D0%3BentryY%3D0.25%3BentryDx%3D0%3BentryDy%3D0%3B%22%20edge%3D%221%22%20source%3D%226%22%20parent%3D%221%22%3E%3CmxGeometry%20relative%3D%221%22%20as%3D%22geometry%22%3E%3CmxPoint%20x%3D%22-270%22%20y%3D%22189%22%20as%3D%22targetPoint%22%2F%3E%3C%2FmxGeometry%3E%3C%2FmxCell%3E%3CmxCell%20id%3D%226%22%20value%3D%22ID.VEND%22%20style%3D%22ellipse%3BwhiteSpace%3Dwrap%3Bhtml%3D1%3B%22%20vertex%3D%221%22%20parent%3D%221%22%3E%3CmxGeometry%20x%3D%22-340%22%20y%3D%22110%22%20width%3D%2270%22%20height%3D%2240%22%20as%3D%22geometry%22%2F%3E%3C%2FmxCell%3E%3CmxCell%20id%3D%227%22%20style%3D%22edgeStyle%3DorthogonalEdgeStyle%3Brounded%3D0%3BorthogonalLoop%3D1%3BjettySize%3Dauto%3Bhtml%3D1%3BentryX%3D0.25%3BentryY%3D0%3BentryDx%3D0%3BentryDy%3D0%3B%22%20edge%3D%221%22%20source%3D%228%22%20parent%3D%221%22%3E%3CmxGeometry%20relative%3D%221%22%20as%3D%22geometry%22%3E%3CmxPoint%20x%3D%22-242%22%20y%3D%22178%22%20as%3D%22targetPoint%22%2F%3E%3C%2FmxGeometry%3E%3C%2FmxCell%3E%3CmxCell%20id%3D%228%22%20value%3D%22Direccion.V%22%20style%3D%22ellipse%3BwhiteSpace%3Dwrap%3Bhtml%3D1%3B%22%20vertex%3D%221%22%20parent%3D%221%22%3E%3CmxGeometry%20x%3D%22-180%22%20y%3D%22110%22%20width%3D%2270%22%20height%3D%2240%22%20as%3D%22geometry%22%2F%3E%3C%2FmxCell%3E%3CmxCell%20id%3D%229%22%20style%3D%22edgeStyle%3DorthogonalEdgeStyle%3Brounded%3D0%3BorthogonalLoop%3D1%3BjettySize%3Dauto%3Bhtml%3D1%3BentryX%3D0.13%3BentryY%3D0.114%3BentryDx%3D0%3BentryDy%3D0%3BentryPerimeter%3D0%3B%22%20edge%3D%221%22%20source%3D%222%22%20parent%3D%221%22%3E%3CmxGeometry%20relative%3D%221%22%20as%3D%22geometry%22%3E%3CmxPoint%20x%3D%22-256%22%20y%3D%22183%22%20as%3D%22targetPoint%22%2F%3E%3C%2FmxGeometry%3E%3C%2FmxCell%3E%3CmxCell%20id%3D%2210%22%20style%3D%22edgeStyle%3DorthogonalEdgeStyle%3Brounded%3D0%3BorthogonalLoop%3D1%3BjettySize%3Dauto%3Bhtml%3D1%3BentryX%3D0.622%3BentryY%3D0.036%3BentryDx%3D0%3BentryDy%3D0%3BentryPerimeter%3D0%3B%22%20edge%3D%221%22%20parent%3D%221%22%3E%3CmxGeometry%20relative%3D%221%22%20as%3D%22geometry%22%3E%3CArray%20as%3D%22points%22%3E%3CmxPoint%20x%3D%22-202%22%20y%3D%2290%22%2F%3E%3C%2FArray%3E%3CmxPoint%20x%3D%22-136%22%20y%3D%2290%22%20as%3D%22sourcePoint%22%2F%3E%3CmxPoint%20x%3D%22-202%22%20y%3D%22179%22%20as%3D%22targetPoint%22%2F%3E%3C%2FmxGeometry%3E%3C%2FmxCell%3E%3C%2Froot%3E%3C%2FmxGraphModel%3E&lt;/span&gt;&lt;/div&gt;" style="rounded=1;whiteSpace=wrap;html=1;fillColor=#EBAFDF;" vertex="1" parent="1">
          <mxGeometry x="1355" y="645" width="110" height="45" as="geometry" />
        </mxCell>
        <mxCell id="8fW0IzKIwBm5PHPQVIf4-11" style="edgeStyle=orthogonalEdgeStyle;rounded=0;orthogonalLoop=1;jettySize=auto;html=1;entryX=0.25;entryY=1;entryDx=0;entryDy=0;" edge="1" parent="1" source="8fW0IzKIwBm5PHPQVIf4-12" target="8fW0IzKIwBm5PHPQVIf4-6">
          <mxGeometry relative="1" as="geometry" />
        </mxCell>
        <mxCell id="8fW0IzKIwBm5PHPQVIf4-12" value="Nombre.E" style="ellipse;whiteSpace=wrap;html=1;" vertex="1" parent="1">
          <mxGeometry x="927.5" y="700" width="70" height="40" as="geometry" />
        </mxCell>
        <mxCell id="8fW0IzKIwBm5PHPQVIf4-13" style="edgeStyle=orthogonalEdgeStyle;rounded=0;orthogonalLoop=1;jettySize=auto;html=1;entryX=0.5;entryY=1;entryDx=0;entryDy=0;" edge="1" parent="1" source="8fW0IzKIwBm5PHPQVIf4-14" target="8fW0IzKIwBm5PHPQVIf4-6">
          <mxGeometry relative="1" as="geometry" />
        </mxCell>
        <mxCell id="8fW0IzKIwBm5PHPQVIf4-14" value="Apellidos.E" style="ellipse;whiteSpace=wrap;html=1;" vertex="1" parent="1">
          <mxGeometry x="1087.5" y="840" width="70" height="40" as="geometry" />
        </mxCell>
        <mxCell id="8fW0IzKIwBm5PHPQVIf4-15" value="ID.E" style="ellipse;whiteSpace=wrap;html=1;" vertex="1" parent="1">
          <mxGeometry x="947.5" y="795" width="70" height="40" as="geometry" />
        </mxCell>
        <mxCell id="8fW0IzKIwBm5PHPQVIf4-16" style="edgeStyle=orthogonalEdgeStyle;rounded=0;orthogonalLoop=1;jettySize=auto;html=1;entryX=0.75;entryY=1;entryDx=0;entryDy=0;" edge="1" parent="1" source="8fW0IzKIwBm5PHPQVIf4-17" target="8fW0IzKIwBm5PHPQVIf4-6">
          <mxGeometry relative="1" as="geometry" />
        </mxCell>
        <mxCell id="8fW0IzKIwBm5PHPQVIf4-17" value="NIF.E" style="ellipse;whiteSpace=wrap;html=1;" vertex="1" parent="1">
          <mxGeometry x="1047.5" y="795" width="70" height="40" as="geometry" />
        </mxCell>
        <mxCell id="8fW0IzKIwBm5PHPQVIf4-18" value="Telefono.E" style="ellipse;whiteSpace=wrap;html=1;" vertex="1" parent="1">
          <mxGeometry x="912.5" y="745" width="60" height="40" as="geometry" />
        </mxCell>
        <mxCell id="8fW0IzKIwBm5PHPQVIf4-19" style="edgeStyle=orthogonalEdgeStyle;rounded=0;orthogonalLoop=1;jettySize=auto;html=1;entryX=0.5;entryY=0;entryDx=0;entryDy=0;" edge="1" parent="1" source="8fW0IzKIwBm5PHPQVIf4-20" target="8fW0IzKIwBm5PHPQVIf4-8">
          <mxGeometry relative="1" as="geometry" />
        </mxCell>
        <mxCell id="8fW0IzKIwBm5PHPQVIf4-20" value="Titulo.R" style="ellipse;whiteSpace=wrap;html=1;" vertex="1" parent="1">
          <mxGeometry x="1360" y="340" width="70" height="40" as="geometry" />
        </mxCell>
        <mxCell id="8fW0IzKIwBm5PHPQVIf4-21" style="edgeStyle=orthogonalEdgeStyle;rounded=0;orthogonalLoop=1;jettySize=auto;html=1;entryX=0.75;entryY=0;entryDx=0;entryDy=0;" edge="1" parent="1" source="8fW0IzKIwBm5PHPQVIf4-22" target="8fW0IzKIwBm5PHPQVIf4-8">
          <mxGeometry relative="1" as="geometry" />
        </mxCell>
        <mxCell id="8fW0IzKIwBm5PHPQVIf4-22" value="Numero.R" style="ellipse;whiteSpace=wrap;html=1;" vertex="1" parent="1">
          <mxGeometry x="1420" y="280" width="70" height="40" as="geometry" />
        </mxCell>
        <mxCell id="8fW0IzKIwBm5PHPQVIf4-23" value="Periodicidad.R" style="ellipse;whiteSpace=wrap;html=1;" vertex="1" parent="1">
          <mxGeometry x="1503" y="300" width="90" height="40" as="geometry" />
        </mxCell>
        <mxCell id="8fW0IzKIwBm5PHPQVIf4-24" value="ID.R" style="ellipse;whiteSpace=wrap;html=1;" vertex="1" parent="1">
          <mxGeometry x="1580" y="340" width="70" height="40" as="geometry" />
        </mxCell>
        <mxCell id="8fW0IzKIwBm5PHPQVIf4-25" style="edgeStyle=orthogonalEdgeStyle;rounded=0;orthogonalLoop=1;jettySize=auto;html=1;entryX=0.25;entryY=0;entryDx=0;entryDy=0;" edge="1" parent="1" source="8fW0IzKIwBm5PHPQVIf4-26" target="8fW0IzKIwBm5PHPQVIf4-8">
          <mxGeometry relative="1" as="geometry" />
        </mxCell>
        <mxCell id="8fW0IzKIwBm5PHPQVIf4-26" value="Tipo.E" style="ellipse;whiteSpace=wrap;html=1;" vertex="1" parent="1">
          <mxGeometry x="1580" y="410" width="70" height="40" as="geometry" />
        </mxCell>
        <mxCell id="8fW0IzKIwBm5PHPQVIf4-27" value="Nombre.P" style="ellipse;whiteSpace=wrap;html=1;" vertex="1" parent="1">
          <mxGeometry x="1275" y="755" width="70" height="40" as="geometry" />
        </mxCell>
        <mxCell id="8fW0IzKIwBm5PHPQVIf4-28" style="edgeStyle=orthogonalEdgeStyle;rounded=0;orthogonalLoop=1;jettySize=auto;html=1;entryX=0.5;entryY=1;entryDx=0;entryDy=0;" edge="1" parent="1" source="8fW0IzKIwBm5PHPQVIf4-29" target="8fW0IzKIwBm5PHPQVIf4-10">
          <mxGeometry relative="1" as="geometry" />
        </mxCell>
        <mxCell id="8fW0IzKIwBm5PHPQVIf4-29" value="Apellidos.P" style="ellipse;whiteSpace=wrap;html=1;" vertex="1" parent="1">
          <mxGeometry x="1375" y="755" width="70" height="40" as="geometry" />
        </mxCell>
        <mxCell id="8fW0IzKIwBm5PHPQVIf4-30" value="ID.P" style="ellipse;whiteSpace=wrap;html=1;" vertex="1" parent="1">
          <mxGeometry x="1325" y="795" width="70" height="40" as="geometry" />
        </mxCell>
        <mxCell id="8fW0IzKIwBm5PHPQVIf4-31" value="NIF.P" style="ellipse;whiteSpace=wrap;html=1;" vertex="1" parent="1">
          <mxGeometry x="1465" y="760" width="70" height="40" as="geometry" />
        </mxCell>
        <mxCell id="8fW0IzKIwBm5PHPQVIf4-32" style="edgeStyle=orthogonalEdgeStyle;rounded=0;orthogonalLoop=1;jettySize=auto;html=1;entryX=0.75;entryY=1;entryDx=0;entryDy=0;" edge="1" parent="1" source="8fW0IzKIwBm5PHPQVIf4-33" target="8fW0IzKIwBm5PHPQVIf4-10">
          <mxGeometry relative="1" as="geometry">
            <Array as="points">
              <mxPoint x="1490" y="700" />
              <mxPoint x="1440" y="700" />
              <mxPoint x="1440" y="710" />
              <mxPoint x="1438" y="710" />
            </Array>
          </mxGeometry>
        </mxCell>
        <mxCell id="8fW0IzKIwBm5PHPQVIf4-33" value="Telefono.P" style="ellipse;whiteSpace=wrap;html=1;" vertex="1" parent="1">
          <mxGeometry x="1468" y="700" width="60" height="40" as="geometry" />
        </mxCell>
        <mxCell id="8fW0IzKIwBm5PHPQVIf4-34" value="SECCIONES" style="rounded=1;whiteSpace=wrap;html=1;fillColor=#CD7979;" vertex="1" parent="1">
          <mxGeometry x="1862" y="763.75" width="110" height="45" as="geometry" />
        </mxCell>
        <mxCell id="8fW0IzKIwBm5PHPQVIf4-35" style="edgeStyle=orthogonalEdgeStyle;rounded=0;orthogonalLoop=1;jettySize=auto;html=1;entryX=1;entryY=0;entryDx=0;entryDy=0;" edge="1" parent="1" source="8fW0IzKIwBm5PHPQVIf4-36" target="8fW0IzKIwBm5PHPQVIf4-34">
          <mxGeometry relative="1" as="geometry" />
        </mxCell>
        <mxCell id="8fW0IzKIwBm5PHPQVIf4-36" value="ID.S" style="ellipse;whiteSpace=wrap;html=1;" vertex="1" parent="1">
          <mxGeometry x="2052" y="723.75" width="70" height="40" as="geometry" />
        </mxCell>
        <mxCell id="8fW0IzKIwBm5PHPQVIf4-37" style="edgeStyle=orthogonalEdgeStyle;rounded=0;orthogonalLoop=1;jettySize=auto;html=1;entryX=1;entryY=0.75;entryDx=0;entryDy=0;" edge="1" parent="1" source="8fW0IzKIwBm5PHPQVIf4-38" target="8fW0IzKIwBm5PHPQVIf4-34">
          <mxGeometry relative="1" as="geometry" />
        </mxCell>
        <mxCell id="8fW0IzKIwBm5PHPQVIf4-38" value="Titulo.S" style="ellipse;whiteSpace=wrap;html=1;" vertex="1" parent="1">
          <mxGeometry x="2025" y="857.5" width="70" height="40" as="geometry" />
        </mxCell>
        <mxCell id="8fW0IzKIwBm5PHPQVIf4-39" style="edgeStyle=orthogonalEdgeStyle;rounded=0;orthogonalLoop=1;jettySize=auto;html=1;entryX=1;entryY=1;entryDx=0;entryDy=0;" edge="1" parent="1" source="8fW0IzKIwBm5PHPQVIf4-40" target="8fW0IzKIwBm5PHPQVIf4-34">
          <mxGeometry relative="1" as="geometry" />
        </mxCell>
        <mxCell id="8fW0IzKIwBm5PHPQVIf4-40" value="Extension.S" style="ellipse;whiteSpace=wrap;html=1;" vertex="1" parent="1">
          <mxGeometry x="2052" y="770" width="70" height="40" as="geometry" />
        </mxCell>
        <mxCell id="8fW0IzKIwBm5PHPQVIf4-41" style="edgeStyle=orthogonalEdgeStyle;rounded=0;orthogonalLoop=1;jettySize=auto;html=1;" edge="1" parent="1" source="8fW0IzKIwBm5PHPQVIf4-42" target="8fW0IzKIwBm5PHPQVIf4-2">
          <mxGeometry relative="1" as="geometry" />
        </mxCell>
        <mxCell id="8fW0IzKIwBm5PHPQVIf4-42" value="Domicilio.Su" style="ellipse;whiteSpace=wrap;html=1;" vertex="1" parent="1">
          <mxGeometry x="1120" y="257.5" width="70" height="40" as="geometry" />
        </mxCell>
        <mxCell id="8fW0IzKIwBm5PHPQVIf4-43" style="edgeStyle=orthogonalEdgeStyle;rounded=0;orthogonalLoop=1;jettySize=auto;html=1;entryX=0.25;entryY=0;entryDx=0;entryDy=0;" edge="1" parent="1" source="8fW0IzKIwBm5PHPQVIf4-44" target="8fW0IzKIwBm5PHPQVIf4-2">
          <mxGeometry relative="1" as="geometry">
            <Array as="points">
              <mxPoint x="1137" y="377.5" />
            </Array>
          </mxGeometry>
        </mxCell>
        <mxCell id="8fW0IzKIwBm5PHPQVIf4-44" value="ID.Su" style="ellipse;whiteSpace=wrap;html=1;" vertex="1" parent="1">
          <mxGeometry x="1010" y="337.5" width="70" height="40" as="geometry" />
        </mxCell>
        <mxCell id="8fW0IzKIwBm5PHPQVIf4-45" style="edgeStyle=orthogonalEdgeStyle;rounded=0;orthogonalLoop=1;jettySize=auto;html=1;entryX=0.75;entryY=0;entryDx=0;entryDy=0;" edge="1" parent="1" source="8fW0IzKIwBm5PHPQVIf4-46" target="8fW0IzKIwBm5PHPQVIf4-2">
          <mxGeometry relative="1" as="geometry" />
        </mxCell>
        <mxCell id="8fW0IzKIwBm5PHPQVIf4-46" value="Codigo.Su" style="ellipse;whiteSpace=wrap;html=1;" vertex="1" parent="1">
          <mxGeometry x="1190" y="327.5" width="70" height="40" as="geometry" />
        </mxCell>
        <mxCell id="8fW0IzKIwBm5PHPQVIf4-47" value="Telefono.Su" style="ellipse;whiteSpace=wrap;html=1;" vertex="1" parent="1">
          <mxGeometry x="1230" y="260" width="70" height="37.5" as="geometry" />
        </mxCell>
        <mxCell id="8fW0IzKIwBm5PHPQVIf4-48" value="" style="edgeStyle=orthogonalEdgeStyle;rounded=0;orthogonalLoop=1;jettySize=auto;html=1;" edge="1" parent="1" source="8fW0IzKIwBm5PHPQVIf4-49" target="8fW0IzKIwBm5PHPQVIf4-89">
          <mxGeometry relative="1" as="geometry" />
        </mxCell>
        <mxCell id="8fW0IzKIwBm5PHPQVIf4-49" value="&lt;div&gt;EJEMPLAR&lt;/div&gt;" style="rounded=1;whiteSpace=wrap;html=1;fillColor=#FBFFC5;" vertex="1" parent="1">
          <mxGeometry x="1670" y="740" width="110" height="45" as="geometry" />
        </mxCell>
        <mxCell id="8fW0IzKIwBm5PHPQVIf4-50" style="edgeStyle=orthogonalEdgeStyle;rounded=0;orthogonalLoop=1;jettySize=auto;html=1;entryX=0.5;entryY=0;entryDx=0;entryDy=0;" edge="1" parent="1" source="8fW0IzKIwBm5PHPQVIf4-51" target="8fW0IzKIwBm5PHPQVIf4-49">
          <mxGeometry relative="1" as="geometry">
            <mxPoint x="1723" y="730" as="targetPoint" />
            <Array as="points">
              <mxPoint x="1703" y="640" />
              <mxPoint x="1703" y="700" />
              <mxPoint x="1725" y="700" />
            </Array>
          </mxGeometry>
        </mxCell>
        <mxCell id="8fW0IzKIwBm5PHPQVIf4-51" value="Fecha.E" style="ellipse;whiteSpace=wrap;html=1;" vertex="1" parent="1">
          <mxGeometry x="1620" y="620" width="70" height="40" as="geometry" />
        </mxCell>
        <mxCell id="8fW0IzKIwBm5PHPQVIf4-52" style="edgeStyle=orthogonalEdgeStyle;rounded=0;orthogonalLoop=1;jettySize=auto;html=1;entryX=0.664;entryY=0;entryDx=0;entryDy=0;entryPerimeter=0;" edge="1" parent="1" source="8fW0IzKIwBm5PHPQVIf4-53" target="8fW0IzKIwBm5PHPQVIf4-49">
          <mxGeometry relative="1" as="geometry">
            <mxPoint x="1743" y="730" as="targetPoint" />
            <Array as="points">
              <mxPoint x="1733" y="590" />
              <mxPoint x="1733" y="675" />
              <mxPoint x="1743" y="675" />
            </Array>
          </mxGeometry>
        </mxCell>
        <mxCell id="8fW0IzKIwBm5PHPQVIf4-53" value="NumPag.E" style="ellipse;whiteSpace=wrap;html=1;" vertex="1" parent="1">
          <mxGeometry x="1633" y="570" width="70" height="40" as="geometry" />
        </mxCell>
        <mxCell id="8fW0IzKIwBm5PHPQVIf4-54" style="edgeStyle=orthogonalEdgeStyle;rounded=0;orthogonalLoop=1;jettySize=auto;html=1;entryX=0.391;entryY=0;entryDx=0;entryDy=0;entryPerimeter=0;" edge="1" parent="1" source="8fW0IzKIwBm5PHPQVIf4-55" target="8fW0IzKIwBm5PHPQVIf4-49">
          <mxGeometry relative="1" as="geometry">
            <mxPoint x="1713" y="730" as="targetPoint" />
          </mxGeometry>
        </mxCell>
        <mxCell id="8fW0IzKIwBm5PHPQVIf4-55" value="ID.E" style="ellipse;whiteSpace=wrap;html=1;" vertex="1" parent="1">
          <mxGeometry x="1620" y="670" width="70" height="40" as="geometry" />
        </mxCell>
        <mxCell id="8fW0IzKIwBm5PHPQVIf4-56" style="edgeStyle=orthogonalEdgeStyle;rounded=0;orthogonalLoop=1;jettySize=auto;html=1;entryX=0.75;entryY=0;entryDx=0;entryDy=0;" edge="1" parent="1" source="8fW0IzKIwBm5PHPQVIf4-57" target="8fW0IzKIwBm5PHPQVIf4-49">
          <mxGeometry relative="1" as="geometry">
            <mxPoint x="1753" y="730" as="targetPoint" />
            <Array as="points">
              <mxPoint x="1753" y="634" />
              <mxPoint x="1753" y="699" />
              <mxPoint x="1753" y="699" />
            </Array>
          </mxGeometry>
        </mxCell>
        <mxCell id="8fW0IzKIwBm5PHPQVIf4-57" value="NumVen.E" style="ellipse;whiteSpace=wrap;html=1;" vertex="1" parent="1">
          <mxGeometry x="1780" y="610" width="70" height="47.5" as="geometry" />
        </mxCell>
        <mxCell id="8fW0IzKIwBm5PHPQVIf4-58" style="edgeStyle=orthogonalEdgeStyle;rounded=0;orthogonalLoop=1;jettySize=auto;html=1;entryX=0.094;entryY=0.998;entryDx=0;entryDy=0;entryPerimeter=0;" edge="1" parent="1" source="8fW0IzKIwBm5PHPQVIf4-59" target="8fW0IzKIwBm5PHPQVIf4-10">
          <mxGeometry relative="1" as="geometry">
            <mxPoint x="1365" y="713.7499999999999" as="targetPoint" />
          </mxGeometry>
        </mxCell>
        <mxCell id="8fW0IzKIwBm5PHPQVIf4-59" value="Especilidad.P" style="ellipse;whiteSpace=wrap;html=1;" vertex="1" parent="1">
          <mxGeometry x="1255" y="690" width="80" height="47.5" as="geometry" />
        </mxCell>
        <mxCell id="8fW0IzKIwBm5PHPQVIf4-60" value="" style="edgeStyle=orthogonalEdgeStyle;rounded=0;orthogonalLoop=1;jettySize=auto;html=1;" edge="1" parent="1" source="8fW0IzKIwBm5PHPQVIf4-61" target="8fW0IzKIwBm5PHPQVIf4-2">
          <mxGeometry relative="1" as="geometry" />
        </mxCell>
        <mxCell id="8fW0IzKIwBm5PHPQVIf4-61" value="TIENE" style="rhombus;whiteSpace=wrap;html=1;fillColor=#1AE43B;" vertex="1" parent="1">
          <mxGeometry x="960" y="430" width="80" height="80" as="geometry" />
        </mxCell>
        <mxCell id="8fW0IzKIwBm5PHPQVIf4-62" style="edgeStyle=orthogonalEdgeStyle;rounded=0;orthogonalLoop=1;jettySize=auto;html=1;entryX=0.36;entryY=0.011;entryDx=0;entryDy=0;entryPerimeter=0;" edge="1" parent="1" source="8fW0IzKIwBm5PHPQVIf4-63" target="8fW0IzKIwBm5PHPQVIf4-2">
          <mxGeometry relative="1" as="geometry">
            <mxPoint x="1150" y="397.5" as="targetPoint" />
            <Array as="points">
              <mxPoint x="1085" y="347.5" />
              <mxPoint x="1150" y="347.5" />
            </Array>
          </mxGeometry>
        </mxCell>
        <mxCell id="8fW0IzKIwBm5PHPQVIf4-63" value="ID.ED" style="ellipse;whiteSpace=wrap;html=1;" vertex="1" parent="1">
          <mxGeometry x="1050" y="297.5" width="70" height="40" as="geometry" />
        </mxCell>
        <mxCell id="8fW0IzKIwBm5PHPQVIf4-64" style="edgeStyle=orthogonalEdgeStyle;rounded=0;orthogonalLoop=1;jettySize=auto;html=1;entryX=0.617;entryY=-0.015;entryDx=0;entryDy=0;entryPerimeter=0;" edge="1" parent="1" source="8fW0IzKIwBm5PHPQVIf4-47" target="8fW0IzKIwBm5PHPQVIf4-2">
          <mxGeometry relative="1" as="geometry">
            <Array as="points">
              <mxPoint x="1265" y="307.5" />
              <mxPoint x="1178" y="307.5" />
            </Array>
          </mxGeometry>
        </mxCell>
        <mxCell id="8fW0IzKIwBm5PHPQVIf4-65" value="" style="edgeStyle=orthogonalEdgeStyle;rounded=0;orthogonalLoop=1;jettySize=auto;html=1;" edge="1" parent="1" source="8fW0IzKIwBm5PHPQVIf4-66" target="8fW0IzKIwBm5PHPQVIf4-8">
          <mxGeometry relative="1" as="geometry" />
        </mxCell>
        <mxCell id="8fW0IzKIwBm5PHPQVIf4-66" value="PUBLICAN" style="rhombus;whiteSpace=wrap;html=1;fillColor=#1AE43B;" vertex="1" parent="1">
          <mxGeometry x="1280" y="432.5" width="80" height="80" as="geometry" />
        </mxCell>
        <mxCell id="8fW0IzKIwBm5PHPQVIf4-67" value="ID.Su" style="ellipse;whiteSpace=wrap;html=1;" vertex="1" parent="1">
          <mxGeometry x="1460" y="340" width="70" height="40" as="geometry" />
        </mxCell>
        <mxCell id="8fW0IzKIwBm5PHPQVIf4-68" style="edgeStyle=orthogonalEdgeStyle;rounded=0;orthogonalLoop=1;jettySize=auto;html=1;entryX=0.873;entryY=0.034;entryDx=0;entryDy=0;entryPerimeter=0;" edge="1" parent="1" source="8fW0IzKIwBm5PHPQVIf4-23" target="8fW0IzKIwBm5PHPQVIf4-8">
          <mxGeometry relative="1" as="geometry">
            <Array as="points">
              <mxPoint x="1565" y="430" />
              <mxPoint x="1520" y="430" />
              <mxPoint x="1520" y="451" />
            </Array>
          </mxGeometry>
        </mxCell>
        <mxCell id="8fW0IzKIwBm5PHPQVIf4-69" style="edgeStyle=orthogonalEdgeStyle;rounded=0;orthogonalLoop=1;jettySize=auto;html=1;entryX=0.841;entryY=0.086;entryDx=0;entryDy=0;entryPerimeter=0;" edge="1" parent="1" source="8fW0IzKIwBm5PHPQVIf4-67" target="8fW0IzKIwBm5PHPQVIf4-8">
          <mxGeometry relative="1" as="geometry" />
        </mxCell>
        <mxCell id="8fW0IzKIwBm5PHPQVIf4-70" style="edgeStyle=orthogonalEdgeStyle;rounded=0;orthogonalLoop=1;jettySize=auto;html=1;entryX=0.182;entryY=1;entryDx=0;entryDy=0;entryPerimeter=0;" edge="1" parent="1" source="8fW0IzKIwBm5PHPQVIf4-27" target="8fW0IzKIwBm5PHPQVIf4-10">
          <mxGeometry relative="1" as="geometry">
            <Array as="points">
              <mxPoint x="1310" y="740" />
              <mxPoint x="1375" y="740" />
            </Array>
          </mxGeometry>
        </mxCell>
        <mxCell id="8fW0IzKIwBm5PHPQVIf4-71" style="edgeStyle=orthogonalEdgeStyle;rounded=0;orthogonalLoop=1;jettySize=auto;html=1;entryX=0.32;entryY=1.028;entryDx=0;entryDy=0;entryPerimeter=0;" edge="1" parent="1" source="8fW0IzKIwBm5PHPQVIf4-30" target="8fW0IzKIwBm5PHPQVIf4-10">
          <mxGeometry relative="1" as="geometry">
            <Array as="points">
              <mxPoint x="1360" y="743" />
              <mxPoint x="1385" y="743" />
              <mxPoint x="1385" y="691" />
            </Array>
          </mxGeometry>
        </mxCell>
        <mxCell id="8fW0IzKIwBm5PHPQVIf4-72" style="edgeStyle=orthogonalEdgeStyle;rounded=0;orthogonalLoop=1;jettySize=auto;html=1;entryX=0.652;entryY=1.059;entryDx=0;entryDy=0;entryPerimeter=0;" edge="1" parent="1" source="8fW0IzKIwBm5PHPQVIf4-31" target="8fW0IzKIwBm5PHPQVIf4-10">
          <mxGeometry relative="1" as="geometry">
            <Array as="points">
              <mxPoint x="1500" y="750" />
              <mxPoint x="1427" y="750" />
            </Array>
          </mxGeometry>
        </mxCell>
        <mxCell id="8fW0IzKIwBm5PHPQVIf4-73" value="" style="edgeStyle=orthogonalEdgeStyle;rounded=0;orthogonalLoop=1;jettySize=auto;html=1;" edge="1" parent="1" source="8fW0IzKIwBm5PHPQVIf4-74" target="8fW0IzKIwBm5PHPQVIf4-8">
          <mxGeometry relative="1" as="geometry" />
        </mxCell>
        <mxCell id="8fW0IzKIwBm5PHPQVIf4-74" value="PUBLICAN" style="rhombus;whiteSpace=wrap;html=1;fillColor=#1AE43B;" vertex="1" parent="1">
          <mxGeometry x="1370" y="540" width="80" height="80" as="geometry" />
        </mxCell>
        <mxCell id="8fW0IzKIwBm5PHPQVIf4-75" value="ID.Su" style="ellipse;whiteSpace=wrap;html=1;" vertex="1" parent="1">
          <mxGeometry x="997.5" y="835" width="70" height="40" as="geometry" />
        </mxCell>
        <mxCell id="8fW0IzKIwBm5PHPQVIf4-76" style="edgeStyle=orthogonalEdgeStyle;rounded=0;orthogonalLoop=1;jettySize=auto;html=1;entryX=0.083;entryY=1.022;entryDx=0;entryDy=0;entryPerimeter=0;" edge="1" parent="1" source="8fW0IzKIwBm5PHPQVIf4-18" target="8fW0IzKIwBm5PHPQVIf4-6">
          <mxGeometry relative="1" as="geometry" />
        </mxCell>
        <mxCell id="8fW0IzKIwBm5PHPQVIf4-77" style="edgeStyle=orthogonalEdgeStyle;rounded=0;orthogonalLoop=1;jettySize=auto;html=1;entryX=0.364;entryY=1.041;entryDx=0;entryDy=0;entryPerimeter=0;" edge="1" parent="1" source="8fW0IzKIwBm5PHPQVIf4-15" target="8fW0IzKIwBm5PHPQVIf4-6">
          <mxGeometry relative="1" as="geometry" />
        </mxCell>
        <mxCell id="8fW0IzKIwBm5PHPQVIf4-78" style="edgeStyle=orthogonalEdgeStyle;rounded=0;orthogonalLoop=1;jettySize=auto;html=1;entryX=0.598;entryY=1.059;entryDx=0;entryDy=0;entryPerimeter=0;" edge="1" parent="1" source="8fW0IzKIwBm5PHPQVIf4-75" target="8fW0IzKIwBm5PHPQVIf4-6">
          <mxGeometry relative="1" as="geometry" />
        </mxCell>
        <mxCell id="8fW0IzKIwBm5PHPQVIf4-79" style="edgeStyle=orthogonalEdgeStyle;rounded=0;orthogonalLoop=1;jettySize=auto;html=1;entryX=0.5;entryY=1;entryDx=0;entryDy=0;" edge="1" parent="1" source="8fW0IzKIwBm5PHPQVIf4-80" target="8fW0IzKIwBm5PHPQVIf4-2">
          <mxGeometry relative="1" as="geometry" />
        </mxCell>
        <mxCell id="8fW0IzKIwBm5PHPQVIf4-80" value="TRABAJAN" style="rhombus;whiteSpace=wrap;html=1;fillColor=#1AE43B;" vertex="1" parent="1">
          <mxGeometry x="1022.5" y="540" width="80" height="80" as="geometry" />
        </mxCell>
        <mxCell id="8fW0IzKIwBm5PHPQVIf4-81" style="edgeStyle=orthogonalEdgeStyle;rounded=0;orthogonalLoop=1;jettySize=auto;html=1;entryX=1;entryY=0.5;entryDx=0;entryDy=0;" edge="1" parent="1" source="8fW0IzKIwBm5PHPQVIf4-83" target="8fW0IzKIwBm5PHPQVIf4-34">
          <mxGeometry relative="1" as="geometry" />
        </mxCell>
        <mxCell id="8fW0IzKIwBm5PHPQVIf4-82" style="edgeStyle=orthogonalEdgeStyle;rounded=0;orthogonalLoop=1;jettySize=auto;html=1;entryX=1;entryY=0.25;entryDx=0;entryDy=0;" edge="1" parent="1" source="8fW0IzKIwBm5PHPQVIf4-83" target="8fW0IzKIwBm5PHPQVIf4-34">
          <mxGeometry relative="1" as="geometry" />
        </mxCell>
        <mxCell id="8fW0IzKIwBm5PHPQVIf4-83" value="ID.E" style="ellipse;whiteSpace=wrap;html=1;" vertex="1" parent="1">
          <mxGeometry x="2052" y="817.5" width="70" height="40" as="geometry" />
        </mxCell>
        <mxCell id="8fW0IzKIwBm5PHPQVIf4-84" value="" style="edgeStyle=orthogonalEdgeStyle;rounded=0;orthogonalLoop=1;jettySize=auto;html=1;" edge="1" parent="1" source="8fW0IzKIwBm5PHPQVIf4-85" target="8fW0IzKIwBm5PHPQVIf4-49">
          <mxGeometry relative="1" as="geometry" />
        </mxCell>
        <mxCell id="8fW0IzKIwBm5PHPQVIf4-85" value="TIENE" style="rhombus;whiteSpace=wrap;html=1;fillColor=#1AE43B;" vertex="1" parent="1">
          <mxGeometry x="1650" y="432.5" width="80" height="80" as="geometry" />
        </mxCell>
        <mxCell id="8fW0IzKIwBm5PHPQVIf4-86" value="ID.R" style="ellipse;whiteSpace=wrap;html=1;" vertex="1" parent="1">
          <mxGeometry x="1763" y="657.5" width="70" height="40" as="geometry" />
        </mxCell>
        <mxCell id="8fW0IzKIwBm5PHPQVIf4-87" style="edgeStyle=orthogonalEdgeStyle;rounded=0;orthogonalLoop=1;jettySize=auto;html=1;entryX=0.836;entryY=0.072;entryDx=0;entryDy=0;entryPerimeter=0;" edge="1" parent="1" source="8fW0IzKIwBm5PHPQVIf4-86" target="8fW0IzKIwBm5PHPQVIf4-49">
          <mxGeometry relative="1" as="geometry" />
        </mxCell>
        <mxCell id="8fW0IzKIwBm5PHPQVIf4-88" value="" style="edgeStyle=orthogonalEdgeStyle;rounded=0;orthogonalLoop=1;jettySize=auto;html=1;" edge="1" parent="1" source="8fW0IzKIwBm5PHPQVIf4-89" target="8fW0IzKIwBm5PHPQVIf4-34">
          <mxGeometry relative="1" as="geometry" />
        </mxCell>
        <mxCell id="8fW0IzKIwBm5PHPQVIf4-89" value="CONTIENE" style="rhombus;whiteSpace=wrap;html=1;fillColor=#1AE43B;" vertex="1" parent="1">
          <mxGeometry x="1877" y="652.5" width="80" height="80" as="geometry" />
        </mxCell>
        <mxCell id="8fW0IzKIwBm5PHPQVIf4-90" value="ID.P" style="ellipse;whiteSpace=wrap;html=1;" vertex="1" parent="1">
          <mxGeometry x="1320" y="290" width="70" height="40" as="geometry" />
        </mxCell>
        <mxCell id="8fW0IzKIwBm5PHPQVIf4-91" style="edgeStyle=orthogonalEdgeStyle;rounded=0;orthogonalLoop=1;jettySize=auto;html=1;entryX=0.157;entryY=0.008;entryDx=0;entryDy=0;entryPerimeter=0;" edge="1" parent="1" source="8fW0IzKIwBm5PHPQVIf4-90" target="8fW0IzKIwBm5PHPQVIf4-8">
          <mxGeometry relative="1" as="geometry">
            <Array as="points">
              <mxPoint x="1437" y="330" />
            </Array>
          </mxGeometry>
        </mxCell>
        <mxCell id="8fW0IzKIwBm5PHPQVIf4-92" value="1:N" style="text;html=1;align=center;verticalAlign=middle;resizable=0;points=[];autosize=1;strokeColor=none;fillColor=none;" vertex="1" parent="1">
          <mxGeometry x="1070" y="397.5" width="40" height="30" as="geometry" />
        </mxCell>
        <mxCell id="8fW0IzKIwBm5PHPQVIf4-93" value="1:1" style="text;html=1;align=center;verticalAlign=middle;resizable=0;points=[];autosize=1;strokeColor=none;fillColor=none;" vertex="1" parent="1">
          <mxGeometry x="920" y="357.5" width="40" height="30" as="geometry" />
        </mxCell>
        <mxCell id="8fW0IzKIwBm5PHPQVIf4-94" value="1:N" style="text;html=1;align=center;verticalAlign=middle;resizable=0;points=[];autosize=1;strokeColor=none;fillColor=none;" vertex="1" parent="1">
          <mxGeometry x="980" y="510" width="40" height="30" as="geometry" />
        </mxCell>
        <mxCell id="8fW0IzKIwBm5PHPQVIf4-95" value="1:N" style="text;html=1;align=center;verticalAlign=middle;resizable=0;points=[];autosize=1;strokeColor=none;fillColor=none;" vertex="1" parent="1">
          <mxGeometry x="1057.5" y="620" width="40" height="30" as="geometry" />
        </mxCell>
        <mxCell id="8fW0IzKIwBm5PHPQVIf4-96" value="1:1" style="text;html=1;align=center;verticalAlign=middle;resizable=0;points=[];autosize=1;strokeColor=none;fillColor=none;" vertex="1" parent="1">
          <mxGeometry x="1057.5" y="510" width="40" height="30" as="geometry" />
        </mxCell>
        <mxCell id="8fW0IzKIwBm5PHPQVIf4-97" value="1:N" style="text;html=1;align=center;verticalAlign=middle;resizable=0;points=[];autosize=1;strokeColor=none;fillColor=none;" vertex="1" parent="1">
          <mxGeometry x="1097.5" y="565" width="40" height="30" as="geometry" />
        </mxCell>
        <mxCell id="8fW0IzKIwBm5PHPQVIf4-98" value="1:N" style="text;html=1;align=center;verticalAlign=middle;resizable=0;points=[];autosize=1;strokeColor=none;fillColor=none;" vertex="1" parent="1">
          <mxGeometry x="1380" y="447.5" width="40" height="30" as="geometry" />
        </mxCell>
        <mxCell id="8fW0IzKIwBm5PHPQVIf4-99" value="1:N" style="text;html=1;align=center;verticalAlign=middle;resizable=0;points=[];autosize=1;strokeColor=none;fillColor=none;" vertex="1" parent="1">
          <mxGeometry x="1210" y="405" width="40" height="30" as="geometry" />
        </mxCell>
        <mxCell id="8fW0IzKIwBm5PHPQVIf4-100" value="N:N" style="text;html=1;align=center;verticalAlign=middle;resizable=0;points=[];autosize=1;strokeColor=none;fillColor=none;" vertex="1" parent="1">
          <mxGeometry x="1300" y="410" width="40" height="30" as="geometry" />
        </mxCell>
        <mxCell id="8fW0IzKIwBm5PHPQVIf4-101" value="1:N" style="text;html=1;align=center;verticalAlign=middle;resizable=0;points=[];autosize=1;strokeColor=none;fillColor=none;" vertex="1" parent="1">
          <mxGeometry x="1405" y="510" width="40" height="30" as="geometry" />
        </mxCell>
        <mxCell id="8fW0IzKIwBm5PHPQVIf4-102" value="1:N" style="text;html=1;align=center;verticalAlign=middle;resizable=0;points=[];autosize=1;strokeColor=none;fillColor=none;" vertex="1" parent="1">
          <mxGeometry x="1405" y="620" width="40" height="30" as="geometry" />
        </mxCell>
        <mxCell id="8fW0IzKIwBm5PHPQVIf4-103" value="N:N" style="text;html=1;align=center;verticalAlign=middle;resizable=0;points=[];autosize=1;strokeColor=none;fillColor=none;" vertex="1" parent="1">
          <mxGeometry x="1445" y="565" width="40" height="30" as="geometry" />
        </mxCell>
        <mxCell id="8fW0IzKIwBm5PHPQVIf4-104" value="1:N" style="text;html=1;align=center;verticalAlign=middle;resizable=0;points=[];autosize=1;strokeColor=none;fillColor=none;" vertex="1" parent="1">
          <mxGeometry x="1633" y="737.5" width="40" height="30" as="geometry" />
        </mxCell>
        <mxCell id="8fW0IzKIwBm5PHPQVIf4-105" style="edgeStyle=orthogonalEdgeStyle;rounded=0;orthogonalLoop=1;jettySize=auto;html=1;" edge="1" parent="1" source="8fW0IzKIwBm5PHPQVIf4-24">
          <mxGeometry relative="1" as="geometry">
            <mxPoint x="1491" y="450" as="targetPoint" />
            <Array as="points">
              <mxPoint x="1615" y="400" />
              <mxPoint x="1491" y="400" />
            </Array>
          </mxGeometry>
        </mxCell>
        <mxCell id="8fW0IzKIwBm5PHPQVIf4-106" value="1:1" style="text;html=1;align=center;verticalAlign=middle;resizable=0;points=[];autosize=1;strokeColor=none;fillColor=none;" vertex="1" parent="1">
          <mxGeometry x="1520" y="450" width="40" height="30" as="geometry" />
        </mxCell>
        <mxCell id="8fW0IzKIwBm5PHPQVIf4-107" value="1:N" style="text;html=1;align=center;verticalAlign=middle;resizable=0;points=[];autosize=1;strokeColor=none;fillColor=none;" vertex="1" parent="1">
          <mxGeometry x="1670" y="510" width="40" height="30" as="geometry" />
        </mxCell>
        <mxCell id="8fW0IzKIwBm5PHPQVIf4-108" value="1:1" style="text;html=1;align=center;verticalAlign=middle;resizable=0;points=[];autosize=1;strokeColor=none;fillColor=none;" vertex="1" parent="1">
          <mxGeometry x="1915" y="630" width="40" height="30" as="geometry" />
        </mxCell>
        <mxCell id="8fW0IzKIwBm5PHPQVIf4-109" value="1:1" style="text;html=1;align=center;verticalAlign=middle;resizable=0;points=[];autosize=1;strokeColor=none;fillColor=none;" vertex="1" parent="1">
          <mxGeometry x="1915" y="740" width="40" height="30" as="geometry" />
        </mxCell>
        <mxCell id="8fW0IzKIwBm5PHPQVIf4-110" value="1:1" style="text;html=1;align=center;verticalAlign=middle;resizable=0;points=[];autosize=1;strokeColor=none;fillColor=none;" vertex="1" parent="1">
          <mxGeometry x="1840" y="677.5" width="40" height="30" as="geometry" />
        </mxCell>
      </root>
    </mxGraphModel>
  </diagram>
</mxfile>
